<?xml version="1.0" standalone="no"?>
<!DOCTYPE svg PUBLIC "-//W3C//DTD SVG 20010904//EN" "http://www.w3.org/TR/2001/REC-SVG-20010904/DTD/svg10.dtd">
<svg version="1.0" xmlns="http://www.w3.org/2000/svg"
	width="128.000000pt" height="128.000000pt" viewBox="0 0 128.000000 128.000000"
	preserveAspectRatio="xMidYMid meet">
	<metadata>
Created by potrace 1.10, written by Peter Selinger 2001-2011
</metadata>
	<g transform="translate(0.000000,128.000000) scale(0.100000,-0.100000)"
		fill="#000000" stroke="none">
		<path d="M497 1145 c-117 -32 -226 -111 -292 -211 -136 -204 -113 -471 53
-648 135 -143 357 -197 541 -133 218 76 351 263 351 493 0 232 -151 431 -379
498 -66 19 -206 20 -274 1z m224 -59 c187 -40 327 -185 359 -373 49 -295 -225
-566 -519 -514 -192 34 -336 179 -372 373 -34 187 69 387 245 474 106 52 181
62 287 40z" />
		<path d="M340 710 l0 -199 45 27 44 27 1 146 0 146 -40 27 c-22 14 -42 26 -45
26 -3 0 -5 -90 -5 -200z" />
		<path d="M460 793 l1 -48 122 -70 c67 -38 129 -70 137 -70 8 0 70 32 137 70
l123 70 0 48 c0 26 -2 47 -4 47 -5 0 -229 -130 -241 -140 -7 -5 -63 21 -139
66 -71 41 -131 74 -132 74 -2 0 -4 -21 -4 -47z" />
		<path d="M471 552 l-131 -75 0 -49 0 -49 63 36 c34 20 110 63 170 97 59 33
107 63 107 67 0 3 -18 15 -39 27 l-39 21 -131 -75z" />
		<path d="M710 554 l-125 -73 -6 -48 c-3 -26 -5 -49 -4 -50 3 -4 344 192 345
198 0 3 -19 14 -42 25 l-43 21 -125 -73z" />
	</g>
</svg>
